<?xml version="1.0" encoding="utf-8"?>
<svg version="1.1" xmlns="http://www.w3.org/2000/svg" xmlns:xlink="http://www.w3.org/1999/xlink" x="0px" y="0px" viewBox="0 0 1000 1000" enable-background="new 0 0 1000 1000" xml:space="preserve">
<path d="M972.1,212.6L788.3,28.9c-11.5-11.5-27.1-17.9-43.3-17.9H111c-50.6,0-101,50.5-101,101.2v778.6c0,50.7,50.3,98.3,101,98.3h779.8c50.7,0,99.2-47.6,99.2-98.3V255.9C990,239.7,983.5,224.1,972.1,212.6z M921.4,890.8c0,16.9-13.7,30.6-30.6,30.6H111c-16.9,0-30.6-13.7-30.6-30.6V112.2c0-16.9,13.7-30.7,30.6-30.7h603.4v113.2h0c0,50.7,41.1,91.8,91.9,91.8h30.6h84.6V890.8z M816.3,220.3c-20.4,0-37-16.6-37-37v-69l107.9,106L816.3,220.3L816.3,220.3z"/>
<path d="M536.2,257.1h111c20.1,0,36.3-16.4,36.3-36.4c0-19.9-16.3-36.3-36.3-36.3h-111c-20.1,0-36.4,16.2-36.4,36.3C499.8,240.9,516.1,257.1,536.2,257.1z"/>
<path d="M186.7,527.5h629.1c20.1,0,36.3-16.4,36.3-36.4c0-19.9-16.3-36.3-36.3-36.3H186.7c-20.1,0-36.4,16.2-36.4,36.3C150.3,511.2,166.6,527.5,186.7,527.5z"/>
<path d="M186.7,662.6h629.1c20.1,0,36.3-16.4,36.3-36.4c0-19.9-16.3-36.3-36.3-36.3H186.7c-20.1,0-36.4,16.2-36.4,36.3C150.3,646.4,166.6,662.6,186.7,662.6z"/>
<path d="M186.7,797.8h629.1c20.1,0,36.3-16.4,36.3-36.4c0-19.9-16.3-36.3-36.3-36.3H186.7c-20.1,0-36.4,16.2-36.4,36.3C150.3,781.6,166.6,797.8,186.7,797.8z"/>
<path d="M536.2,392.3h111c20.1,0,36.3-16.4,36.3-36.4c0-19.9-16.3-36.3-36.3-36.3h-111c-20.1,0-36.4,16.2-36.4,36.3C499.8,376.1,516.1,392.3,536.2,392.3z"/>
<path d="M180.9,395.9h218.4c16.9,0,30.6-13.6,30.6-30.6V181.6c0-17-13.7-30.6-30.6-30.6H180.9c-16.9,0-30.6,13.7-30.6,30.6v183.7C150.3,382.3,164,395.9,180.9,395.9z M219.7,220.3H360v106.5H219.7V220.3z"/>
</svg>